<svg width="960" height="768" viewBox="0 0 960 768" fill="none" xmlns="http://www.w3.org/2000/svg">
<path opacity="0.5" d="M302.266 30.5206C188.492 105.913 170.861 248.473 93.8052 353.645C66.9813 390.241 32.3219 422.994 14.2386 463.592C-27.2783 556.519 29.8603 661.929 106.338 735.736C142.806 770.947 185.402 803.205 236.94 818.04C276.573 829.455 319.069 829.927 360.786 830.227L1091.66 836.175C1173.26 836.828 1263.93 834.465 1322.6 784.657C1363.04 750.358 1379.46 700.269 1393.4 652.458C1410.52 593.71 1426.05 529.909 1399.4 473.955C1368.96 409.936 1291.98 373.657 1244.16 318.416C1166.55 228.917 1168.33 93.5482 1069.51 22.0998C1023.37 -11.2469 962.485 -24.3241 903.159 -30.8627C791.318 -43.2067 685.387 -19.9056 575.547 -23.1551C481.669 -25.929 380.151 -21.0944 302.266 30.5206Z" fill="#E7ECFF"/>
</svg>
