<svg width="21" height="23" viewBox="0 0 21 23" fill="none" xmlns="http://www.w3.org/2000/svg">
<path d="M19.8398 14.3786L19.1436 13.8868C17.9834 13.1057 17.2583 11.8327 17.1423 10.444L16.8812 7.75346C16.5912 4.74465 14.2997 2.40126 11.3702 1.99623V0.925786C11.3702 0.405031 10.9641 0 10.442 0C9.91989 0 9.51381 0.405031 9.51381 0.925786V1.99623C6.58425 2.40126 4.29282 4.74465 4.00276 7.75346L3.79972 10.444C3.6837 11.8327 2.92956 13.0767 1.79834 13.8868L1.10221 14.3786C0.406078 14.8704 0 15.6516 0 16.5195V17.4742C0 18.3711 0.725138 19.0943 1.62431 19.0943H6.23619C6.41022 21.2642 8.26657 23 10.5 23C12.7334 23 14.5608 21.2642 14.7638 19.0943H19.3757C20.2749 19.0943 21 18.3711 21 17.4742V16.4906C20.971 15.6516 20.5359 14.8415 19.8398 14.3786ZM10.471 21.1774C9.25276 21.1774 8.23757 20.2805 8.06354 19.1233H12.8785C12.7044 20.2805 11.6892 21.1774 10.471 21.1774ZM19.1146 17.2717H1.82735V16.4906C1.82735 16.2302 1.94337 15.9987 2.14641 15.883L2.84254 15.3912C4.43785 14.2918 5.45304 12.556 5.62707 10.6176L5.88812 7.92704C6.12017 5.55472 8.09254 3.76101 10.471 3.76101C12.8494 3.76101 14.8508 5.55472 15.0539 7.92704L15.3149 10.6176C15.4889 12.556 16.5041 14.2918 18.0994 15.3912L18.7956 15.883C18.9986 16.0277 19.1146 16.2591 19.1146 16.4906V17.2717Z" fill="white"/>
</svg>
