<svg width="27" height="27" viewBox="0 0 27 27" fill="none" xmlns="http://www.w3.org/2000/svg">
<path d="M25.9657 5.535L20.5657 0.135C20.5207 0.09 20.4757 0.045 20.4307 0.045C20.3857 0 20.2957 0 20.2507 0H5.40068C5.13068 0 4.95068 0.18 4.95068 0.45V4.5C4.95068 4.77 5.13068 4.95 5.40068 4.95C5.67068 4.95 5.85068 4.77 5.85068 4.5V0.9H19.8007V5.85C19.8007 6.12 19.9807 6.3 20.2507 6.3H25.2007V26.1H5.85068V20.25C5.85068 19.98 5.67068 19.8 5.40068 19.8C5.13068 19.8 4.95068 19.98 4.95068 20.25V26.55C4.95068 26.82 5.13068 27 5.40068 27H25.6507C25.9207 27 26.1007 26.82 26.1007 26.55V5.85C26.1007 5.805 26.1007 5.715 26.0557 5.67C26.0557 5.625 26.0107 5.58 25.9657 5.535ZM20.7004 5.4V1.53L24.5704 5.4H20.7004Z" fill="#771390"/>
<path d="M9.81099 20.3856L1.84574 12.4203C0.585735 11.1153 0.585735 9.04531 1.84574 7.78531C3.15074 6.48031 5.22074 6.48031 6.52574 7.78531L14.131 15.3906C14.581 15.8406 14.851 16.3806 14.896 16.9656C14.941 17.5506 14.716 18.0456 14.311 18.4506C13.456 19.3056 12.196 19.2156 11.251 18.2706L3.15099 10.1706C3.01599 10.0356 2.92599 9.81057 2.92599 9.58557C2.92599 9.36057 3.01599 9.18057 3.15099 9.00057C3.46599 8.68557 3.96099 8.68557 4.27599 9.00057L11.1613 15.8858L11.7913 15.2558L4.86125 8.37057C4.18625 7.69557 3.10625 7.69557 2.47625 8.37057C1.80125 9.04557 1.80125 10.1256 2.47625 10.8006L10.7563 19.0806C11.3863 19.6656 12.1513 19.9356 12.9163 19.9356C13.6363 19.9356 14.3563 19.6656 14.9413 19.0806C15.5263 18.4956 15.8413 17.6856 15.7963 16.8756C15.7513 16.2006 15.4363 15.4806 14.9413 14.9406L7.15599 7.15531C5.53599 5.53531 2.88099 5.53531 1.21599 7.15531C-0.359007 8.73031 -0.404007 11.2503 1.08099 12.8701L1.21599 13.0501L9.13599 20.9701L9.81099 20.3856Z" fill="#771390"/>
</svg>
