<svg width="18" height="17" viewBox="0 0 18 17" fill="none" xmlns="http://www.w3.org/2000/svg">
<path d="M9.00234 1.01254e-06C8.92011 -0.000156629 8.83872 0.0180946 8.76322 0.0536221L0.363511 3.9769C0.255648 4.02735 0.163737 4.11115 0.099152 4.21791C0.0345673 4.32468 0.000144624 4.44973 0.000144624 4.57758C0.000144624 4.70544 0.0345673 4.83049 0.099152 4.93726C0.163737 5.04402 0.255648 5.12782 0.363511 5.17827L8.76322 9.10027C8.83803 9.13525 8.91859 9.15329 9 9.15329C9.08141 9.15329 9.16197 9.13525 9.23678 9.10027L17.6365 5.17827C17.7444 5.12782 17.8363 5.04402 17.9008 4.93726C17.9654 4.83049 17.9999 4.70544 17.9999 4.57758C17.9999 4.44973 17.9654 4.32468 17.9008 4.21791C17.8363 4.11115 17.7444 4.02735 17.6365 3.9769L9.23678 0.0536221C9.16273 0.018773 9.083 0.000536091 9.00234 1.01254e-06ZM1.75369 7.25034L0.363511 7.8989C0.255648 7.94935 0.163737 8.03315 0.0991519 8.13991C0.0345671 8.24668 0.000144481 8.37173 0.000144481 8.49958C0.000144481 8.62744 0.0345671 8.75249 0.0991519 8.85926C0.163737 8.96602 0.255648 9.04982 0.363511 9.10027L8.76322 13.0235C8.83803 13.0585 8.91859 13.0766 9 13.0766C9.08141 13.0766 9.16197 13.0585 9.23678 13.0235L17.6365 9.10027C17.7444 9.04982 17.8363 8.96602 17.9009 8.85926C17.9654 8.75249 17.9999 8.62744 17.9999 8.49958C17.9999 8.37173 17.9654 8.24668 17.9009 8.13991C17.8363 8.03315 17.7444 7.94935 17.6365 7.8989L16.2463 7.25034L9.7115 10.3029C9.48692 10.408 9.24503 10.4622 9.00059 10.4622C8.75614 10.4622 8.51426 10.408 8.28967 10.3029L1.75369 7.25034ZM1.75252 11.1723L0.363511 11.8222C-0.12117 12.0487 -0.12117 12.797 0.363511 13.0235L8.76322 16.9468C8.91454 17.0177 9.08546 17.0177 9.23678 16.9468L17.6365 13.0235C18.1212 12.797 18.1212 12.0487 17.6365 11.8222L16.2475 11.1723L9.7115 14.2249C9.48692 14.33 9.24503 14.3842 9.00059 14.3842C8.75614 14.3842 8.51426 14.33 8.28967 14.2249L1.75252 11.1723Z" fill="#393939"/>
</svg>
