<svg width="18" height="21" viewBox="0 0 18 21" fill="none" xmlns="http://www.w3.org/2000/svg">
<path d="M12.25 7.21058H5.63889C5.53575 7.21058 5.43683 7.16961 5.3639 7.09668C5.29097 7.02375 5.25 6.92483 5.25 6.82169C5.25 6.71855 5.29097 6.61964 5.3639 6.54671C5.43683 6.47378 5.53575 6.4328 5.63889 6.4328H12.25C12.3531 6.4328 12.4521 6.47378 12.525 6.54671C12.5979 6.61964 12.6389 6.71855 12.6389 6.82169C12.6389 6.92483 12.5979 7.02375 12.525 7.09668C12.4521 7.16961 12.3531 7.21058 12.25 7.21058Z" fill="#393939"/>
<path d="M2.81003 7.84044L2.23619 7.18932C2.16922 7.11179 2.13555 7.01096 2.1425 6.90875C2.14945 6.80654 2.19646 6.7112 2.27331 6.64345C2.35016 6.5757 2.45065 6.54103 2.55292 6.54695C2.6552 6.55288 2.75101 6.59893 2.81952 6.6751L3.1017 6.99506L4.18063 5.77067C4.24912 5.69442 4.34495 5.64829 4.44727 5.64233C4.54959 5.63637 4.65013 5.67104 4.72702 5.73882C4.8039 5.80659 4.85092 5.90199 4.85784 6.00425C4.86476 6.10651 4.83102 6.20736 4.76397 6.28488L3.39336 7.84044C3.35686 7.88181 3.31198 7.91494 3.26169 7.93764C3.21141 7.96033 3.15687 7.97207 3.1017 7.97207C3.04652 7.97207 2.99198 7.96033 2.9417 7.93764C2.89141 7.91494 2.84653 7.88181 2.81003 7.84044Z" fill="#393939"/>
<path d="M12.25 9.9328H5.63889C5.53575 9.9328 5.43683 9.89183 5.3639 9.8189C5.29097 9.74597 5.25 9.64705 5.25 9.54391C5.25 9.44077 5.29097 9.34186 5.3639 9.26892C5.43683 9.19599 5.53575 9.15502 5.63889 9.15502H12.25C12.3531 9.15502 12.4521 9.19599 12.525 9.26892C12.5979 9.34186 12.6389 9.44077 12.6389 9.54391C12.6389 9.64705 12.5979 9.74597 12.525 9.8189C12.4521 9.89183 12.3531 9.9328 12.25 9.9328Z" fill="#393939"/>
<path d="M2.81003 10.5627L2.23619 9.91154C2.16922 9.83401 2.13555 9.73318 2.1425 9.63097C2.14945 9.52876 2.19646 9.43342 2.27331 9.36567C2.35016 9.29793 2.45065 9.26325 2.55292 9.26917C2.6552 9.2751 2.75101 9.32115 2.81952 9.39732L3.1017 9.71728L4.18063 8.49289C4.24912 8.41664 4.34495 8.37052 4.44727 8.36455C4.54959 8.35859 4.65013 8.39326 4.72702 8.46104C4.8039 8.52881 4.85092 8.62421 4.85784 8.72647C4.86476 8.82873 4.83102 8.92959 4.76397 9.0071L3.39336 10.5627C3.35686 10.604 3.31198 10.6372 3.26169 10.6599C3.21141 10.6826 3.15687 10.6943 3.1017 10.6943C3.04652 10.6943 2.99198 10.6826 2.9417 10.6599C2.89141 10.6372 2.84653 10.604 2.81003 10.5627Z" fill="#393939"/>
<path d="M2.81003 13.2849L2.23619 12.6338C2.16922 12.5562 2.13555 12.4554 2.1425 12.3532C2.14945 12.251 2.19646 12.1556 2.27331 12.0879C2.35016 12.0201 2.45065 11.9855 2.55292 11.9914C2.6552 11.9973 2.75101 12.0434 2.81952 12.1195L3.1017 12.4395L4.18063 11.2151C4.24912 11.1389 4.34495 11.0927 4.44727 11.0868C4.54959 11.0808 4.65013 11.1155 4.72702 11.1833C4.8039 11.251 4.85092 11.3464 4.85784 11.4487C4.86476 11.551 4.83102 11.6518 4.76397 11.7293L3.39336 13.2849C3.35686 13.3262 3.31198 13.3594 3.26169 13.3821C3.21141 13.4048 3.15687 13.4165 3.1017 13.4165C3.04652 13.4165 2.99198 13.4048 2.9417 13.3821C2.89141 13.3594 2.84653 13.3262 2.81003 13.2849Z" fill="#393939"/>
<path d="M16.4694 11.5613L16.2889 11.7418L16.1406 11.5935L16.3019 11.4322C16.5999 11.1336 16.7673 10.729 16.7673 10.3072C16.7673 9.88533 16.5999 9.48073 16.3019 9.18218C16.1069 8.98499 15.8631 8.84315 15.5953 8.77118C15.3275 8.69922 15.0454 8.69972 14.7778 8.77262V3.5C14.7775 3.19068 14.6545 2.89413 14.4357 2.67541C14.217 2.45669 13.9205 2.33367 13.6112 2.33333H11.6667V1.55555C11.6667 1.50448 11.6567 1.4539 11.6371 1.40671C11.6176 1.35953 11.5889 1.31665 11.5528 1.28054C11.5167 1.24442 11.4738 1.21578 11.4267 1.19624C11.3795 1.1767 11.3289 1.16665 11.2778 1.16666H8.8951C8.80887 0.832752 8.61414 0.53696 8.3415 0.325779C8.06886 0.114597 7.73377 0 7.38891 0C7.04405 0 6.70896 0.114597 6.43632 0.325779C6.16368 0.53696 5.96895 0.832752 5.88272 1.16666H3.5C3.44893 1.16665 3.39835 1.1767 3.35116 1.19624C3.30398 1.21578 3.2611 1.24442 3.22499 1.28054C3.18887 1.31665 3.16023 1.35953 3.14069 1.40671C3.12115 1.4539 3.1111 1.50448 3.11111 1.55555V2.33333H1.16667C0.857351 2.33367 0.560801 2.45669 0.342082 2.67541C0.123362 2.89413 0.000337632 3.19068 0 3.5V19.8333C0.000337632 20.1426 0.123362 20.4392 0.342082 20.6579C0.560801 20.8766 0.857351 20.9997 1.16667 21H13.6111C13.9204 20.9997 14.217 20.8766 14.4357 20.6579C14.6544 20.4392 14.7774 20.1426 14.7778 19.8333V14.3526L17.0192 12.1112C17.0906 12.038 17.1303 11.9396 17.1297 11.8373C17.1291 11.735 17.0882 11.6371 17.0158 11.5647C16.9435 11.4924 16.8456 11.4515 16.7433 11.4508C16.641 11.4502 16.5426 11.4899 16.4694 11.5613ZM7.84458 16.8146L8.66947 17.6395L7.51771 17.9664L7.84458 16.8146ZM9.38202 17.2522L8.23169 16.1019C9.44531 14.8883 11.9221 12.4116 13.0252 11.3085C13.7313 12.0145 13.4703 11.7535 14.1755 12.4587L9.38202 17.2522ZM15.752 9.73209C15.9043 9.88473 15.9898 10.0915 15.9898 10.3072C15.9898 10.5228 15.9043 10.7296 15.752 10.8822L14.7254 11.9088C14.0193 11.2028 14.2804 11.4638 13.5751 10.7586L14.6016 9.7321C14.7566 9.58428 14.9626 9.50182 15.1768 9.50182C15.391 9.50182 15.597 9.58428 15.752 9.73209ZM3.88895 1.94444H6.22228C6.27336 1.94445 6.32393 1.9344 6.37112 1.91487C6.41831 1.89533 6.46118 1.86668 6.4973 1.83057C6.53341 1.79445 6.56206 1.75158 6.5816 1.70439C6.60113 1.6572 6.61118 1.60662 6.61117 1.55555C6.61117 1.34927 6.69312 1.15144 6.83898 1.00558C6.98484 0.859718 7.18267 0.777773 7.38895 0.777773C7.59523 0.777773 7.79306 0.859718 7.93892 1.00558C8.08478 1.15144 8.16673 1.34927 8.16673 1.55555C8.16671 1.60662 8.17676 1.6572 8.1963 1.70439C8.21584 1.75158 8.24448 1.79445 8.2806 1.83057C8.31671 1.86668 8.35959 1.89533 8.40678 1.91487C8.45397 1.9344 8.50454 1.94445 8.55562 1.94444H10.8889V3.5H3.88895V1.94444ZM14.0001 19.8333C14 19.9364 13.959 20.0353 13.886 20.1082C13.8131 20.1811 13.7143 20.2221 13.6112 20.2222H1.16673C1.06362 20.2221 0.964762 20.1811 0.891853 20.1082C0.818945 20.0353 0.777939 19.9364 0.777836 19.8333V3.5C0.777939 3.39689 0.818945 3.29803 0.891853 3.22512C0.964762 3.15222 1.06362 3.11121 1.16673 3.11111H3.11117V3.88889C3.11116 3.93996 3.12121 3.99053 3.14075 4.03772C3.16028 4.08491 3.18893 4.12779 3.22504 4.1639C3.26116 4.20002 3.30403 4.22866 3.35122 4.2482C3.39841 4.26774 3.44899 4.27779 3.50006 4.27777H11.2778C11.3289 4.27779 11.3795 4.26774 11.4267 4.2482C11.4739 4.22866 11.5167 4.20002 11.5529 4.1639C11.589 4.12779 11.6176 4.08491 11.6372 4.03772C11.6567 3.99053 11.6667 3.93996 11.6667 3.88889V3.11111H13.6112C13.7143 3.11121 13.8131 3.15222 13.886 3.22512C13.959 3.29803 14 3.39689 14.0001 3.5V9.23383C12.9234 10.3105 13.443 9.79089 11.3566 11.8772H5.63895C5.53581 11.8772 5.43689 11.9182 5.36396 11.9912C5.29103 12.0641 5.25006 12.163 5.25006 12.2661C5.25006 12.3693 5.29103 12.4682 5.36396 12.5411C5.43689 12.6141 5.53581 12.655 5.63895 12.655H10.5788L8.63428 14.5995H5.63895C5.53581 14.5995 5.43689 14.6404 5.36396 14.7134C5.29103 14.7863 5.25006 14.8852 5.25006 14.9884C5.25006 15.0915 5.29103 15.1904 5.36396 15.2633C5.43689 15.3363 5.53581 15.3772 5.63895 15.3772H7.85647L7.46187 15.7718C7.45525 15.7784 7.45313 15.7874 7.44701 15.7942C7.34787 15.8697 7.27549 15.9749 7.24046 16.0945L6.67423 18.0896C6.65795 18.1509 6.65192 18.2145 6.65641 18.2778L6.31421 18.62C6.2779 18.656 6.24907 18.6989 6.22936 18.7461C6.20966 18.7934 6.19947 18.844 6.19938 18.8952C6.1993 18.9464 6.20931 18.997 6.22885 19.0443C6.2484 19.0916 6.27708 19.1346 6.31327 19.1708C6.34945 19.207 6.39242 19.2357 6.43972 19.2552C6.48701 19.2748 6.5377 19.2848 6.58887 19.2847C6.64005 19.2846 6.6907 19.2744 6.73793 19.2547C6.78516 19.235 6.82804 19.2062 6.8641 19.1699L7.20511 18.8289C7.21544 18.8294 7.22553 18.8319 7.2359 18.8319C7.28972 18.8319 7.34328 18.8244 7.39502 18.8097L9.38922 18.2436C9.5091 18.2085 9.61458 18.1359 9.69022 18.0365C9.69693 18.0305 9.7056 18.0285 9.71203 18.022L14.0001 13.734V14.0306L13.1904 14.8402C13.1192 14.9135 13.0797 15.0119 13.0805 15.114C13.0812 15.2162 13.1221 15.314 13.1943 15.3862C13.2666 15.4584 13.3644 15.4993 13.4665 15.5001C13.5687 15.5008 13.667 15.4613 13.7403 15.3902L14.0001 15.1304L14.0001 19.8333ZM14.7778 12.9562L15.5907 12.1434L15.739 12.2917L14.7778 13.2528V12.9562Z" fill="#393939"/>
<path d="M2.81003 16.0071L2.23619 15.356C2.16922 15.2785 2.13555 15.1776 2.1425 15.0754C2.14945 14.9732 2.19646 14.8779 2.27331 14.8101C2.35016 14.7424 2.45065 14.7077 2.55292 14.7136C2.6552 14.7196 2.75101 14.7656 2.81952 14.8418L3.1017 15.1617L4.18063 13.9373C4.24912 13.8611 4.34495 13.815 4.44727 13.809C4.54959 13.803 4.65013 13.8377 4.72702 13.9055C4.8039 13.9733 4.85092 14.0687 4.85784 14.1709C4.86476 14.2732 4.83102 14.374 4.76397 14.4516L3.39336 16.0071C3.35686 16.0485 3.31198 16.0816 3.26169 16.1043C3.21141 16.127 3.15687 16.1387 3.1017 16.1387C3.04652 16.1387 2.99198 16.127 2.9417 16.1043C2.89141 16.0816 2.84653 16.0485 2.81003 16.0071Z" fill="#393939"/>
<path d="M7.40012 1.94444C7.6149 1.94444 7.78901 1.77033 7.78901 1.55555C7.78901 1.34078 7.6149 1.16666 7.40012 1.16666C7.18534 1.16666 7.01123 1.34078 7.01123 1.55555C7.01123 1.77033 7.18534 1.94444 7.40012 1.94444Z" fill="#393939"/>
</svg>
