<svg width="19" height="24" viewBox="0 0 19 24" fill="none" xmlns="http://www.w3.org/2000/svg">
<path d="M8.63587 20.5013C8.63134 20.5012 8.62681 20.5012 8.62226 20.5013H8.62057H2.26586C2.09645 20.5011 1.93397 20.4337 1.81414 20.3138C1.69435 20.1941 1.62702 20.0316 1.6267 19.8621V7.54308H1.62673L1.62667 7.54137C1.61986 7.34223 1.70696 7.15127 1.86193 7.02594L1.86194 7.02596L1.86303 7.02503C2.13795 6.78943 2.6581 6.64068 3.37362 6.59291C4.07638 6.546 4.95797 6.59703 5.95812 6.75068V6.75072L6.00032 6.75738C6.20939 6.79037 6.4218 6.72139 6.57158 6.57177L6.57161 6.57173C6.72123 6.42195 6.79022 6.20969 6.75705 6.00045C6.59865 4.98258 6.54579 4.08592 6.59359 3.37325C6.63923 2.6927 6.77614 2.18898 6.99217 1.90491L6.99227 1.905L7.02722 1.86188C7.15272 1.70704 7.34355 1.6201 7.54268 1.6269L7.54268 1.62693H7.54439L14.6486 1.62693L14.6486 1.62693L8.63587 20.5013ZM8.63587 20.5013H8.63765L8.6377 20.5013C8.7226 20.5035 8.80375 20.5377 8.8649 20.597L8.86495 20.5971C8.93035 20.6607 8.9675 20.7482 8.9675 20.8397C8.9675 20.9312 8.93037 21.0188 8.86495 21.0825L8.8649 21.0826C8.79942 21.1461 8.7111 21.1805 8.61994 21.1782H2.26589H2.26582C1.91708 21.1777 1.58257 21.0389 1.3359 20.7922M8.63587 20.5013L1.62165 5.6903L1.62163 5.69032L1.65699 5.72567M15.3835 14.0785C15.3835 14.0785 15.3835 14.0785 15.3835 14.0785L15.4193 14.0436L15.3835 14.0785ZM15.3835 14.0785C15.4473 14.1442 15.5349 14.1811 15.6263 14.1811C15.7177 14.1811 15.8052 14.1442 15.8689 14.0785M15.3835 14.0785L15.8689 14.0785M15.8689 14.0785C15.9325 14.0133 15.9671 13.925 15.9647 13.8337M15.8689 14.0785L15.9647 13.8337M15.9647 13.8337V2.26606V2.26598C15.9642 1.91709 15.8255 1.58259 15.5788 1.33588C15.3321 1.08917 14.9976 0.950516 14.6487 0.950008H14.6486H7.31228H7.31221V1.00001C6.71686 0.998377 6.14552 1.23488 5.72567 1.65699M15.9647 13.8337L5.6903 1.62165L5.69032 1.62163L5.72567 1.65699M5.72567 1.65699L5.69022 1.62173L1.62173 5.69022L1.65699 5.72567M5.72567 1.65699L1.65699 5.72567M1.65699 5.72567C1.23488 6.14552 0.998215 6.71686 1.00001 7.31221M1.00001 7.31221H0.95001V7.31228L0.95001 19.8622L0.95001 19.8623C0.950349 20.2112 1.0892 20.5457 1.3359 20.7922M1.00001 7.31221V19.8622V7.31221ZM1.3359 20.7922C1.33589 20.7922 1.33589 20.7922 1.33588 20.7922L1.37124 20.7569L1.3359 20.7922ZM6.98596 1.75727C7.13012 1.60445 7.33359 1.51995 7.54523 1.52693H14.6486H14.6487C14.8448 1.5271 15.0326 1.60494 15.1712 1.7435C15.3098 1.88206 15.3876 2.06994 15.3878 2.26601V2.26606V13.8344V13.8357H15.3878C15.386 13.9003 15.4103 13.9627 15.4551 14.0088L15.4552 14.0088C15.5001 14.055 15.5618 14.0811 15.6263 14.0811C15.6908 14.0811 15.7524 14.0551 15.7973 14.0088L15.7973 14.0088C15.8422 13.9627 15.8666 13.9002 15.8647 13.8358L15.8647 13.8344H15.8647L6.98596 1.75727ZM6.98596 1.75727L6.9854 1.75671L6.96734 1.77776" fill="#393939" stroke="#393939" stroke-width="0.1"/>
<path d="M3.37223 9.44718L3.37223 9.44716C3.1891 9.442 3.04326 9.29215 3.04326 9.10881C3.04326 8.92565 3.18908 8.77562 3.37223 8.77046L3.37364 8.77042V8.77044H11.4547C11.5459 8.76797 11.6342 8.80241 11.6997 8.86617M3.37223 9.44718L11.6997 8.86617C11.6997 8.86617 11.6997 8.86617 11.6997 8.86617M3.37223 9.44718H3.37364M3.37223 9.44718H3.37364M11.6997 8.86617C11.7651 8.92984 11.8022 9.01728 11.8022 9.10881M11.6997 8.86617L11.8022 9.10881M3.37364 9.44718H11.4547C11.5459 9.44965 11.6342 9.41521 11.6996 9.35166L11.6997 9.35161M3.37364 9.44718L11.6997 9.35161M11.6997 9.35161C11.7651 9.28791 11.8022 9.20031 11.8022 9.10881M11.6997 9.35161L11.8022 9.10881" fill="#393939" stroke="#393939" stroke-width="0.1"/>
<path d="M13.8793 11.1948V11.1947C13.8793 11.0078 13.7279 10.8564 13.541 10.8562H13.5409H3.37388V10.8562L3.37247 10.8562C3.18933 10.8614 3.04351 11.0114 3.04351 11.1946C3.04351 11.3779 3.18935 11.5277 3.37242 11.5331L3.37242 11.5331H3.37388H13.5409L13.541 11.5331C13.7277 11.5329 13.8791 11.3816 13.8793 11.1948Z" fill="#393939" stroke="#393939" stroke-width="0.1"/>
<path d="M3.37364 12.9411V12.941L3.37218 12.9411C3.1891 12.9464 3.04326 13.0963 3.04326 13.2796C3.04326 13.4628 3.18909 13.6128 3.37223 13.618L3.37223 13.618H3.37364H9.36971V13.618L9.37112 13.618C9.55445 13.6128 9.70009 13.4627 9.70009 13.2796C9.70009 13.0963 9.55443 12.9464 9.37117 12.9411L9.37117 12.9411H9.36971H3.37364Z" fill="#393939" stroke="#393939" stroke-width="0.1"/>
<path d="M18.05 18.7542V18.7543C18.05 19.9503 17.575 21.0974 16.7292 21.943C15.8834 22.7888 14.7364 23.264 13.5403 23.2638C12.3443 23.2638 11.1972 22.7886 10.3516 21.943C9.50582 21.0972 9.03081 19.9501 9.03081 18.7542C9.03081 17.558 9.50599 16.4111 10.3518 15.5655L18.05 18.7542ZM18.05 18.7542C18.0486 17.5587 17.5731 16.4124 16.7279 15.5671C15.8824 14.7217 14.7363 14.2461 13.5407 14.2447H13.5407H13.5406C12.3447 14.2447 11.1976 14.7197 10.3518 15.5655L18.05 18.7542ZM10.8312 21.4647C11.5498 22.1833 12.5243 22.5869 13.5405 22.587C14.5563 22.5855 15.5301 22.1813 16.2484 21.4631C16.9667 20.7449 17.3708 19.7711 17.3722 18.7554C17.3722 17.7392 16.9686 16.7647 16.25 16.0461C15.5315 15.3275 14.5569 14.9239 13.5406 14.9239C12.5244 14.9239 11.5498 15.3275 10.8312 16.0461C10.8312 16.0461 10.8312 16.0461 10.8312 16.0461M10.8312 21.4647L9.659 18.7555C9.659 17.726 10.0681 16.7387 10.7959 16.0108L10.8312 16.0461M10.8312 21.4647C10.1128 20.7462 9.709 19.7716 9.709 18.7555C9.709 17.7393 10.1128 16.7647 10.8312 16.0461M10.8312 21.4647L10.8312 16.0461" fill="#393939" stroke="#393939" stroke-width="0.1"/>
<path d="M16.1292 16.9266L16.1292 16.9266C16.2679 17.0654 16.3458 17.2536 16.3458 17.4497C16.3458 17.6458 16.2679 17.834 16.1292 17.9727L13.489 20.6131L13.4885 20.6136L13.4885 20.6136C13.4349 20.6658 13.3736 20.7094 13.3067 20.7428L13.306 20.7432L13.306 20.7432C13.2966 20.7477 13.2869 20.7517 13.2774 20.7553C13.2395 20.7749 13.1999 20.7911 13.1592 20.8039L13.0942 20.8243V20.8212L11.6142 21.2177C11.6142 21.2177 11.6141 21.2177 11.614 21.2178L16.1292 16.9266ZM16.1292 16.9266L15.3681 16.1659M16.1292 16.9266L15.3681 16.1659M14.8456 15.9488C14.6493 15.9481 14.4609 16.0264 14.3228 16.1658C14.3228 16.1658 14.3228 16.1659 14.3227 16.1659L13.9269 16.5609L13.9269 16.5609L11.682 18.8058L11.682 18.8058L11.6816 18.8062C11.6294 18.8597 11.5858 18.921 11.5522 18.9876L11.5522 18.9876L11.5515 18.9891C11.5474 18.9978 11.5434 19.007 11.5397 19.017C11.5199 19.0548 11.5037 19.0943 11.491 19.1349L11.491 19.1349L11.4905 19.1368L11.077 20.68L11.1253 20.6931L11.077 20.6801L11.077 20.6801C11.0413 20.8119 11.0693 20.9529 11.1523 21.0613L11.1523 21.0613C11.2355 21.1697 11.3645 21.2332 11.5011 21.2329L14.8455 15.9988M14.8456 15.9488L14.8455 15.9988M14.8456 15.9488C14.8455 15.9488 14.8454 15.9488 14.8453 15.9488L14.8455 15.9988M14.8456 15.9488C15.0417 15.9484 15.2299 16.0266 15.3681 16.1658L15.368 16.1657L15.3327 16.2011M14.8455 15.9988C15.0283 15.9983 15.2038 16.0713 15.3327 16.2011M15.3327 16.2011L15.3681 16.1659M15.3327 16.2011L15.3681 16.1659M15.6506 17.4053L15.6532 17.4079C15.6751 17.4326 15.6742 17.4702 15.6506 17.4938L15.4933 17.651L14.6446 16.8014L14.7993 16.6468C14.8131 16.6353 14.8299 16.628 14.8476 16.6258C14.8632 16.6265 14.8782 16.633 14.8895 16.6444L14.8895 16.6444L15.6506 17.4053ZM11.8375 20.4575L12.0199 19.7755L12.5192 20.2748L11.8375 20.4575ZM13.1729 19.9715L12.3231 19.1217L14.1652 17.2799L15.0146 18.1296L13.1729 19.9715Z" fill="#393939" stroke="#393939" stroke-width="0.1"/>
</svg>
