<svg width="23" height="20" viewBox="0 0 23 20" fill="none" xmlns="http://www.w3.org/2000/svg">
<path d="M11.076 0.210284L0.231944 9.65639C-0.0457805 9.89697 -0.0797475 10.3688 0.160647 10.6467C0.401042 10.9247 0.872461 10.9587 1.15019 10.7181L11.5241 1.67698L21.5592 10.7072C21.8312 10.9535 22.3027 10.9299 22.5488 10.6577C22.7949 10.3855 22.7713 9.91365 22.4993 9.66734L12.0051 0.221185C11.71 0.0306576 11.3602 0.0305915 11.076 0.210284ZM19.2308 9.07623V18.5989H14.6833C14.6833 16.7309 14.6833 14.8629 14.6833 12.9948C12.419 12.9948 10.0451 12.9948 8.09166 12.9948C8.06349 14.8628 8.04687 16.7309 8.02609 18.5989H3.48954V9.14191L2.09031 10.3569C2.09031 13.5713 2.09031 16.7856 2.09031 20C4.60535 20 7.23563 20 9.40346 20C9.43135 18.132 9.44821 16.2639 9.46903 14.3958H13.2841C13.2841 16.2639 13.2841 18.1319 13.2841 20C15.8105 20 18.4525 20 20.6301 20C20.6301 16.7783 20.6301 13.5566 20.6301 10.335L19.2308 9.07623Z" fill="#393939"/>
</svg>
