<svg width="19" height="19" viewBox="0 0 19 19" fill="none" xmlns="http://www.w3.org/2000/svg">
<path d="M0.000102997 9.39876C0.000102997 9.32276 0.0254354 9.24676 0.0507689 9.17076C0.0761023 9.14543 0.101437 9.09476 0.12677 9.06943C0.152103 9.0441 0.152102 9.01876 0.177436 8.99343L3.39477 5.75076C3.62277 5.52276 3.97744 5.52276 4.20544 5.75076C4.43344 5.97876 4.43344 6.40943 4.20544 6.63743L1.95077 8.9681H13.1734C13.4774 8.9681 13.7561 9.22143 13.7561 9.55076C13.7561 9.85476 13.5028 10.1334 13.1734 10.1334H1.95077L4.20544 12.3374C4.43344 12.5654 4.43344 12.8948 4.20544 13.1228C3.97744 13.3508 3.62277 13.3254 3.39477 13.0974L0.152102 9.85476C0.126769 9.82943 0.101435 9.8041 0.101435 9.75343C0.0761013 9.7281 0.0507689 9.70276 0.0507689 9.65209C0.000102043 9.55076 0.000102997 9.47476 0.000102997 9.39876Z" fill="#393939"/>
<path d="M7.54933 13.4014V17.8601H17.86V1.82408H7.54933V6.00408H6.40933V1.82408C6.40933 1.19075 6.89067 0.684082 7.47333 0.684082H17.936C18.5187 0.684082 19 1.19075 19 1.82408V17.8601C19 18.4934 18.5187 19.0001 17.936 19.0001H7.47333C6.89067 19.0001 6.40933 18.4934 6.40933 17.8601V13.4014H7.54933Z" fill="#393939"/>
</svg>
