<svg width="21" height="21" viewBox="0 0 21 21" fill="none" xmlns="http://www.w3.org/2000/svg">
<path d="M10.5 3.22707C12.8601 3.22707 14.7385 5.10551 14.7385 7.4656C14.7385 9.77752 12.8601 11.656 10.5 11.656C8.13991 11.656 6.26147 9.77752 6.26147 7.4656C6.26147 5.10551 8.18808 3.22707 10.5 3.22707ZM10.5 4.19037C8.7179 4.19037 7.27294 5.63532 7.27294 7.4656C7.27294 9.24771 8.7179 10.6927 10.5 10.6927C12.2821 10.6927 13.7271 9.24771 13.7271 7.4656C13.7271 5.63532 12.2821 4.19037 10.5 4.19037Z" fill="#393939"/>
<path d="M10.5 0C16.2798 0 21 4.72018 21 10.5C21 16.2798 16.2798 21 10.5 21C4.72018 21 0 16.2798 0 10.5C0 4.72018 4.72018 0 10.5 0ZM8.52523 11.8968H12.4748C15.172 11.8968 17.4358 13.8234 17.9656 16.3761C19.2661 14.7385 19.9885 12.7156 19.9885 10.5C19.9885 5.25 15.75 1.01147 10.5 1.01147C5.25 1.01147 1.01147 5.25 1.01147 10.5C1.01147 12.7156 1.78211 14.7385 3.0344 16.3761C3.56422 13.8234 5.82798 11.8968 8.52523 11.8968ZM17.0986 17.3395C17.0023 14.883 14.9312 12.9083 12.4748 12.9083H8.52523C6.06881 12.9083 3.99771 14.883 3.90138 17.3395C5.63532 18.9771 7.94725 19.9885 10.5 19.9885C13.0528 19.9885 15.3647 18.9771 17.0986 17.3395Z" fill="#393939"/>
</svg>
